<?xml version="1.0" standalone="no"?>
<!DOCTYPE svg PUBLIC "-//W3C//DTD SVG 20010904//EN"
 "http://www.w3.org/TR/2001/REC-SVG-20010904/DTD/svg10.dtd">
<svg version="1.0" xmlns="http://www.w3.org/2000/svg"
 width="720.000000pt" height="720.000000pt" viewBox="0 0 720.000000 720.000000"
 preserveAspectRatio="xMidYMid meet">

<g transform="translate(0.000000,720.000000) scale(0.100000,-0.100000)"
fill="#000000" stroke="none">
<path d="M1915 5129 c-19 -17 -35 -35 -35 -40 0 -5 -20 -56 -44 -113 -60 -140
-102 -262 -131 -376 -32 -126 -84 -455 -95 -605 -13 -174 7 -476 45 -680 13
-69 20 -84 50 -112 31 -30 60 -39 105 -35 49 5 458 -21 525 -34 158 -29 295
-119 459 -297 258 -283 329 -375 745 -972 185 -264 240 -309 386 -309 102 -1
171 30 244 109 157 172 173 450 46 805 -29 82 -104 237 -136 282 l-20 28 25 0
c14 0 101 -7 193 -15 93 -9 254 -16 358 -17 215 -1 287 11 387 64 67 36 109
82 164 182 32 59 38 80 42 146 5 90 -9 165 -44 238 l-26 53 39 72 c38 71 38
73 37 182 0 87 -4 121 -21 162 l-21 53 36 67 c30 58 36 80 40 148 7 134 -29
239 -114 330 l-38 40 -1 95 c-1 79 -6 106 -28 160 -38 91 -71 134 -141 186
-120 91 -246 138 -431 164 -117 16 -612 13 -779 -5 -166 -18 -218 -26 -397
-66 -196 -43 -319 -55 -494 -48 -127 5 -172 12 -295 43 -80 20 -180 50 -223
67 -98 37 -273 79 -332 79 -35 0 -51 -6 -80 -31z m260 -260 c39 -11 95 -27
125 -36 30 -8 56 -16 57 -17 2 -1 -6 -28 -17 -58 -49 -141 -104 -486 -115
-723 -6 -124 7 -477 22 -594 l5 -43 -118 6 c-234 13 -242 14 -248 44 -29 140
-35 513 -11 677 57 387 76 464 184 738 13 33 25 33 116 6z m2392 -41 c76 -23
157 -63 203 -99 36 -29 80 -98 80 -126 0 -7 -39 -12 -102 -15 -157 -6 -228
-50 -228 -143 0 -51 23 -89 67 -110 33 -16 46 -17 106 -7 136 24 220 11 273
-42 34 -34 54 -88 54 -146 0 -58 -10 -64 -66 -38 -44 21 -64 23 -194 23 -130
0 -150 -2 -190 -22 -53 -26 -80 -66 -80 -118 0 -51 23 -89 67 -110 33 -16 46
-17 106 -7 183 32 287 -7 317 -119 12 -45 7 -136 -8 -151 -5 -5 -37 -1 -72 8
-94 24 -279 17 -340 -13 -53 -26 -80 -66 -80 -118 0 -51 23 -89 67 -110 33
-16 46 -17 106 -7 226 39 342 -34 324 -206 -14 -138 -97 -164 -462 -150 -218
8 -446 33 -605 65 -150 30 -194 27 -232 -17 -24 -26 -28 -39 -28 -90 0 -32 4
-69 9 -82 5 -14 44 -62 87 -109 100 -109 165 -209 214 -334 69 -176 84 -246
85 -375 0 -104 -3 -120 -27 -172 -20 -43 -35 -62 -62 -74 -32 -16 -36 -16 -68
3 -20 12 -52 50 -83 100 -27 44 -91 139 -142 209 -51 71 -152 212 -224 314
-333 469 -645 787 -862 880 -64 28 -60 19 -83 175 -10 76 -16 192 -17 375 -1
227 2 287 22 420 27 186 56 326 83 398 l20 53 66 -8 c37 -4 164 -8 282 -7 194
1 227 3 340 28 408 88 480 95 895 92 262 -2 341 -6 382 -18z"/>
</g>
</svg>
