<?xml version="1.0" standalone="no"?>
<!DOCTYPE svg PUBLIC "-//W3C//DTD SVG 20010904//EN"
 "http://www.w3.org/TR/2001/REC-SVG-20010904/DTD/svg10.dtd">
<svg version="1.0" xmlns="http://www.w3.org/2000/svg"
 width="720.000000pt" height="720.000000pt" viewBox="0 0 720.000000 720.000000"
 preserveAspectRatio="xMidYMid meet">

<g transform="translate(0.000000,720.000000) scale(0.100000,-0.100000)"
fill="#000000" stroke="none">
<path d="M3854 5641 c-100 -26 -160 -84 -315 -306 -416 -597 -487 -689 -745
-972 -164 -178 -301 -268 -459 -297 -67 -13 -476 -39 -525 -34 -45 4 -74 -5
-105 -34 -30 -29 -37 -44 -50 -113 -38 -204 -58 -506 -45 -680 11 -150 63
-479 95 -605 29 -114 71 -236 131 -376 24 -57 44 -108 44 -113 0 -5 16 -23 35
-40 29 -25 45 -31 80 -31 59 0 234 42 332 79 43 17 143 47 223 67 243 61 502
61 764 -1 270 -63 479 -85 841 -85 154 0 316 4 360 10 185 26 311 73 431 164
70 52 103 95 141 186 22 54 27 81 28 160 l1 95 38 40 c85 91 121 196 114 330
-4 68 -10 90 -40 148 l-36 67 21 53 c17 41 21 75 21 162 1 109 1 111 -37 182
l-39 72 26 53 c35 73 49 148 44 238 -4 66 -10 87 -42 146 -55 100 -97 146
-164 182 -100 53 -172 65 -387 64 -104 -1 -265 -8 -358 -17 -92 -8 -179 -15
-193 -15 l-25 0 20 28 c11 16 40 69 65 118 161 323 199 651 100 861 -35 73
-114 157 -178 188 -56 28 -158 40 -212 26z m107 -257 c21 -10 39 -34 57 -72
24 -52 27 -68 27 -172 -1 -129 -16 -199 -85 -375 -49 -125 -114 -225 -214
-334 -43 -47 -82 -95 -87 -109 -5 -13 -9 -50 -9 -82 0 -51 4 -64 28 -90 38
-44 82 -47 232 -17 159 32 387 57 605 65 365 14 448 -12 462 -150 18 -172 -98
-245 -324 -206 -60 10 -73 9 -106 -7 -44 -21 -67 -59 -67 -110 0 -52 27 -92
80 -118 61 -30 246 -37 340 -13 35 9 67 13 72 8 15 -15 20 -106 8 -151 -30
-112 -134 -151 -317 -119 -60 10 -73 9 -106 -7 -44 -21 -67 -59 -67 -110 0
-52 27 -92 80 -118 40 -20 60 -22 190 -22 130 0 150 2 194 23 56 26 66 20 66
-38 0 -58 -20 -112 -54 -146 -53 -53 -137 -66 -273 -42 -60 10 -73 9 -106 -7
-44 -21 -67 -59 -67 -110 0 -93 71 -137 228 -143 63 -3 102 -8 102 -15 0 -6
-9 -29 -20 -52 -24 -50 -80 -97 -156 -132 -115 -52 -139 -56 -462 -60 -335 -5
-513 8 -730 53 -64 14 -162 34 -217 46 -83 17 -137 21 -315 22 -118 1 -245 -3
-282 -7 l-66 -8 -20 53 c-27 72 -56 212 -83 398 -37 250 -28 734 16 925 3 13
25 29 62 45 217 93 529 411 862 880 72 102 174 244 226 316 52 72 115 166 141
209 41 67 89 115 117 115 4 0 22 -7 38 -16z m-1714 -1626 c-15 -116 -28 -469
-22 -593 11 -237 66 -582 115 -723 11 -30 19 -57 17 -58 -1 -1 -27 -9 -57 -17
-30 -9 -88 -25 -128 -37 -40 -12 -80 -20 -89 -18 -18 3 -79 152 -119 288 -25
84 -58 262 -89 475 -19 127 -21 365 -5 535 13 149 18 170 38 171 68 5 247 16
291 17 l53 2 -5 -42z"/>
</g>
</svg>
